<mxfile host="app.diagrams.net" modified="2024-02-07T10:30:07.035Z" agent="Mozilla/5.0 (X11; Linux x86_64; rv:109.0) Gecko/20100101 Firefox/115.0" etag="_WU-WNuhhgJ4Med0zEYV" version="23.1.1" type="device">
  <diagram name="PÃ¡gina-1" id="Rganr19uKsDzd_jjGSZs">
    <mxGraphModel dx="1748" dy="882" grid="1" gridSize="10" guides="1" tooltips="1" connect="1" arrows="1" fold="1" page="1" pageScale="1" pageWidth="827" pageHeight="1169" background="#CCFFFF" math="0" shadow="0">
      <root>
        <mxCell id="0" />
        <mxCell id="1" parent="0" />
        <mxCell id="KFptQzDPsd6eJskfGn_--8" style="edgeStyle=orthogonalEdgeStyle;rounded=0;orthogonalLoop=1;jettySize=auto;html=1;exitX=0.5;exitY=1;exitDx=0;exitDy=0;" edge="1" parent="1" source="KhnNNgycjfnA8WjDQx8Y-1" target="u2yYoQbQVsTTtYPgt__t-3">
          <mxGeometry relative="1" as="geometry" />
        </mxCell>
        <mxCell id="KhnNNgycjfnA8WjDQx8Y-1" value="Cliente selecciona el restaurante" style="rounded=1;whiteSpace=wrap;html=1;" parent="1" vertex="1">
          <mxGeometry x="184" y="120" width="120" height="60" as="geometry" />
        </mxCell>
        <mxCell id="KFptQzDPsd6eJskfGn_--7" style="edgeStyle=orthogonalEdgeStyle;rounded=0;orthogonalLoop=1;jettySize=auto;html=1;exitX=1;exitY=0.5;exitDx=0;exitDy=0;" edge="1" parent="1" source="KhnNNgycjfnA8WjDQx8Y-6" target="KhnNNgycjfnA8WjDQx8Y-1">
          <mxGeometry relative="1" as="geometry" />
        </mxCell>
        <mxCell id="KhnNNgycjfnA8WjDQx8Y-6" value="" style="ellipse;whiteSpace=wrap;html=1;aspect=fixed;fillColor=#FFFFFF;fillStyle=auto;gradientColor=#000000;gradientDirection=radial;" parent="1" vertex="1">
          <mxGeometry x="80" y="130" width="40" height="40" as="geometry" />
        </mxCell>
        <mxCell id="KhnNNgycjfnA8WjDQx8Y-18" value="" style="ellipse;shape=doubleEllipse;whiteSpace=wrap;html=1;aspect=fixed;gradientColor=#FFFFFF;gradientDirection=radial;fillColor=#000000;" parent="1" vertex="1">
          <mxGeometry x="80" y="650" width="40" height="40" as="geometry" />
        </mxCell>
        <mxCell id="KFptQzDPsd6eJskfGn_--9" style="edgeStyle=orthogonalEdgeStyle;rounded=0;orthogonalLoop=1;jettySize=auto;html=1;exitX=1;exitY=0.5;exitDx=0;exitDy=0;" edge="1" parent="1" source="u2yYoQbQVsTTtYPgt__t-3" target="u2yYoQbQVsTTtYPgt__t-5">
          <mxGeometry relative="1" as="geometry" />
        </mxCell>
        <mxCell id="u2yYoQbQVsTTtYPgt__t-3" value="Cliente selecciona comida o bebida de la carta" style="rounded=1;whiteSpace=wrap;html=1;" parent="1" vertex="1">
          <mxGeometry x="184" y="240" width="120" height="60" as="geometry" />
        </mxCell>
        <mxCell id="KFptQzDPsd6eJskfGn_--10" style="edgeStyle=orthogonalEdgeStyle;rounded=0;orthogonalLoop=1;jettySize=auto;html=1;exitX=0.5;exitY=0;exitDx=0;exitDy=0;entryX=0;entryY=0.5;entryDx=0;entryDy=0;" edge="1" parent="1" source="u2yYoQbQVsTTtYPgt__t-5" target="u2yYoQbQVsTTtYPgt__t-7">
          <mxGeometry relative="1" as="geometry" />
        </mxCell>
        <mxCell id="KFptQzDPsd6eJskfGn_--23" style="edgeStyle=orthogonalEdgeStyle;rounded=0;orthogonalLoop=1;jettySize=auto;html=1;exitX=0.5;exitY=1;exitDx=0;exitDy=0;entryX=0.5;entryY=0;entryDx=0;entryDy=0;" edge="1" parent="1" source="u2yYoQbQVsTTtYPgt__t-5" target="u2yYoQbQVsTTtYPgt__t-17">
          <mxGeometry relative="1" as="geometry" />
        </mxCell>
        <mxCell id="u2yYoQbQVsTTtYPgt__t-5" value="" style="rounded=1;whiteSpace=wrap;html=1;fillColor=#000000;" parent="1" vertex="1">
          <mxGeometry x="424" y="260" width="120" height="20" as="geometry" />
        </mxCell>
        <mxCell id="KFptQzDPsd6eJskfGn_--13" style="edgeStyle=orthogonalEdgeStyle;rounded=0;orthogonalLoop=1;jettySize=auto;html=1;exitX=1;exitY=0.5;exitDx=0;exitDy=0;entryX=1;entryY=0.5;entryDx=0;entryDy=0;" edge="1" parent="1" source="u2yYoQbQVsTTtYPgt__t-7" target="u2yYoQbQVsTTtYPgt__t-31">
          <mxGeometry relative="1" as="geometry">
            <Array as="points">
              <mxPoint x="770" y="210" />
              <mxPoint x="770" y="450" />
            </Array>
          </mxGeometry>
        </mxCell>
        <mxCell id="u2yYoQbQVsTTtYPgt__t-7" value="&lt;div&gt;Cocinero prepara comida&lt;/div&gt;" style="rounded=1;whiteSpace=wrap;html=1;" parent="1" vertex="1">
          <mxGeometry x="624" y="180" width="120" height="60" as="geometry" />
        </mxCell>
        <mxCell id="KFptQzDPsd6eJskfGn_--24" style="edgeStyle=orthogonalEdgeStyle;rounded=0;orthogonalLoop=1;jettySize=auto;html=1;exitX=1;exitY=0.5;exitDx=0;exitDy=0;entryX=0.5;entryY=0;entryDx=0;entryDy=0;" edge="1" parent="1" source="u2yYoQbQVsTTtYPgt__t-17" target="u2yYoQbQVsTTtYPgt__t-31">
          <mxGeometry relative="1" as="geometry" />
        </mxCell>
        <mxCell id="u2yYoQbQVsTTtYPgt__t-17" value="&lt;div&gt;Camarero prepara bebida&lt;/div&gt;" style="rounded=1;whiteSpace=wrap;html=1;" parent="1" vertex="1">
          <mxGeometry x="424" y="320" width="120" height="60" as="geometry" />
        </mxCell>
        <mxCell id="KFptQzDPsd6eJskfGn_--14" style="edgeStyle=orthogonalEdgeStyle;rounded=0;orthogonalLoop=1;jettySize=auto;html=1;exitX=0;exitY=0.5;exitDx=0;exitDy=0;" edge="1" parent="1" source="u2yYoQbQVsTTtYPgt__t-31" target="u2yYoQbQVsTTtYPgt__t-35">
          <mxGeometry relative="1" as="geometry" />
        </mxCell>
        <mxCell id="u2yYoQbQVsTTtYPgt__t-31" value="" style="rounded=1;whiteSpace=wrap;html=1;fillColor=#000000;" parent="1" vertex="1">
          <mxGeometry x="624" y="440" width="120" height="20" as="geometry" />
        </mxCell>
        <mxCell id="KFptQzDPsd6eJskfGn_--15" style="edgeStyle=orthogonalEdgeStyle;rounded=0;orthogonalLoop=1;jettySize=auto;html=1;exitX=0;exitY=0.5;exitDx=0;exitDy=0;entryX=0.5;entryY=0;entryDx=0;entryDy=0;" edge="1" parent="1" source="u2yYoQbQVsTTtYPgt__t-35" target="u2yYoQbQVsTTtYPgt__t-37">
          <mxGeometry relative="1" as="geometry" />
        </mxCell>
        <mxCell id="u2yYoQbQVsTTtYPgt__t-35" value="Camarero sirve comida o bebida al cliente" style="rounded=1;whiteSpace=wrap;html=1;" parent="1" vertex="1">
          <mxGeometry x="424" y="420" width="120" height="60" as="geometry" />
        </mxCell>
        <mxCell id="KFptQzDPsd6eJskfGn_--16" style="edgeStyle=orthogonalEdgeStyle;rounded=0;orthogonalLoop=1;jettySize=auto;html=1;exitX=1;exitY=0.5;exitDx=0;exitDy=0;" edge="1" parent="1" source="u2yYoQbQVsTTtYPgt__t-37" target="u2yYoQbQVsTTtYPgt__t-39">
          <mxGeometry relative="1" as="geometry" />
        </mxCell>
        <mxCell id="u2yYoQbQVsTTtYPgt__t-37" value="Cliente pide cuenta" style="rounded=1;whiteSpace=wrap;html=1;" parent="1" vertex="1">
          <mxGeometry x="184" y="520" width="120" height="60" as="geometry" />
        </mxCell>
        <mxCell id="KFptQzDPsd6eJskfGn_--17" style="edgeStyle=orthogonalEdgeStyle;rounded=0;orthogonalLoop=1;jettySize=auto;html=1;exitX=0.5;exitY=1;exitDx=0;exitDy=0;entryX=1;entryY=0.5;entryDx=0;entryDy=0;" edge="1" parent="1" source="u2yYoQbQVsTTtYPgt__t-39" target="u2yYoQbQVsTTtYPgt__t-41">
          <mxGeometry relative="1" as="geometry" />
        </mxCell>
        <mxCell id="u2yYoQbQVsTTtYPgt__t-39" value="&lt;div&gt;Camarero prepara cuenta&lt;br&gt;&lt;/div&gt;" style="rounded=1;whiteSpace=wrap;html=1;" parent="1" vertex="1">
          <mxGeometry x="424" y="520" width="120" height="60" as="geometry" />
        </mxCell>
        <mxCell id="KFptQzDPsd6eJskfGn_--18" style="edgeStyle=orthogonalEdgeStyle;rounded=0;orthogonalLoop=1;jettySize=auto;html=1;exitX=0;exitY=0.5;exitDx=0;exitDy=0;" edge="1" parent="1" source="u2yYoQbQVsTTtYPgt__t-41" target="KhnNNgycjfnA8WjDQx8Y-18">
          <mxGeometry relative="1" as="geometry" />
        </mxCell>
        <mxCell id="u2yYoQbQVsTTtYPgt__t-41" value="&lt;div&gt;Cliente paga cuenta&lt;/div&gt;" style="rounded=1;whiteSpace=wrap;html=1;" parent="1" vertex="1">
          <mxGeometry x="184" y="640" width="120" height="60" as="geometry" />
        </mxCell>
        <mxCell id="KFptQzDPsd6eJskfGn_--25" value="Cliente" style="swimlane;whiteSpace=wrap;html=1;" vertex="1" parent="1">
          <mxGeometry x="40" y="40" width="320" height="680" as="geometry" />
        </mxCell>
        <mxCell id="KFptQzDPsd6eJskfGn_--26" value="Cocinero" style="swimlane;whiteSpace=wrap;html=1;" vertex="1" parent="1">
          <mxGeometry x="590" y="40" width="210" height="680" as="geometry" />
        </mxCell>
        <mxCell id="KFptQzDPsd6eJskfGn_--27" value="Camarero" style="swimlane;whiteSpace=wrap;html=1;" vertex="1" parent="1">
          <mxGeometry x="360" y="40" width="230" height="680" as="geometry" />
        </mxCell>
      </root>
    </mxGraphModel>
  </diagram>
</mxfile>
